<svg width="24" height="24" viewBox="0 0 24 24" fill="none" xmlns="http://www.w3.org/2000/svg">
<path fill-rule="evenodd" clip-rule="evenodd" d="M2.20496 12.25C2.20496 6.70232 6.70226 2.20502 12.25 2.20502C17.7977 2.20502 22.295 6.70232 22.295 12.25C22.295 17.7977 17.7977 22.295 12.25 22.295C6.70226 22.295 2.20496 17.7977 2.20496 12.25Z" fill="#E4EA40"/>
<path fill-rule="evenodd" clip-rule="evenodd" d="M17.6717 8.42743C17.9824 8.73766 17.9828 9.24102 17.6726 9.55173L11.1626 16.0717C11.0135 16.221 10.8112 16.3049 10.6003 16.305C10.3893 16.3051 10.187 16.2213 10.0378 16.0722L6.82782 12.8622C6.51735 12.5517 6.51735 12.0483 6.82782 11.7379C7.13829 11.4274 7.64165 11.4274 7.95212 11.7379L10.5995 14.3853L16.5474 8.42829C16.8576 8.11758 17.361 8.1172 17.6717 8.42743Z" fill="black"/>
</svg>
